<svg width="317" height="317" viewBox="0 0 317 317" fill="none" xmlns="http://www.w3.org/2000/svg">
<path d="M224 277C180.922 277 146 242.078 146 199C146 155.922 180.922 121 224 121C267.078 121 302 155.922 302 199C302 242.078 267.078 277 224 277Z" fill="#FCEBB3"/>
<path d="M73 158C48.1472 158 28 137.853 28 113C28 88.1472 48.1472 68 73 68C97.8528 68 118 88.1472 118 113C118 137.853 97.8528 158 73 158Z" fill="#FEFAEC"/>
<path d="M89 287C50.3401 287 19 255.66 19 217C19 178.34 50.3401 147 89 147C127.66 147 159 178.34 159 217C159 255.66 127.66 287 89 287Z" fill="#FCEBB3"/>
<path d="M159.192 258.645C103.305 258.645 58 213.505 58 157.822C58 102.14 103.305 57 159.192 57C215.078 57 260.383 102.14 260.383 157.822C260.383 213.505 215.078 258.645 159.192 258.645Z" fill="#FDF2D0"/>
<path d="M158.733 122.6C165.25 122.6 170.533 117.317 170.533 110.8C170.533 104.283 165.25 99 158.733 99C152.216 99 146.933 104.283 146.933 110.8C146.933 117.317 152.216 122.6 158.733 122.6Z" fill="#FFC107"/>
<path d="M181.684 135.049C179.383 132.748 175.43 128.5 167.76 128.5C166.521 128.5 159.382 128.5 152.774 128.5C138.26 128.441 126.165 117.88 123.746 104.015C123.274 101.124 120.855 99 117.964 99C114.365 99 111.533 102.186 112.064 105.726C114.66 121.42 126.106 134.105 141.033 138.589V211.1C141.033 214.345 143.688 217 146.933 217C150.178 217 152.833 214.345 152.833 211.1V181.6H164.633V211.1C164.633 214.345 167.288 217 170.533 217C173.778 217 176.433 214.345 176.433 211.1V146.495L195.549 165.611C197.85 167.912 201.567 167.912 203.868 165.611C206.169 163.31 206.169 159.593 203.868 157.292L181.684 135.049Z" fill="#FFC107"/>
</svg>
