<svg xmlns="http://www.w3.org/2000/svg" width="238.18" height="189.5" viewBox="0 0 238.18 189.5">
  <g id="Group_151234" data-name="Group 151234" transform="translate(-520.91 -194.5)">
    <g id="Group_151224" data-name="Group 151224" transform="translate(520.91 194.5)">
      <ellipse id="Ellipse_29" data-name="Ellipse 29" cx="50.644" cy="50.622" rx="50.644" ry="50.622" transform="translate(238.18 189.5) rotate(180)" fill="#e8f6f4"/>
      <circle id="Ellipse_30" data-name="Ellipse 30" cx="19.309" cy="19.309" r="19.309" transform="translate(38.618 167.047) rotate(180)" fill="#c9e9e2"/>
      <ellipse id="Ellipse_31" data-name="Ellipse 31" cx="34.004" cy="33.989" rx="34.004" ry="33.989" transform="translate(99.269 85.363) rotate(180)" fill="#e8f6f4"/>
      <ellipse id="Ellipse_32" data-name="Ellipse 32" cx="58.241" cy="58.369" rx="58.241" ry="58.369" transform="translate(234.702 116.739) rotate(180)" fill="#a8dbcf"/>
      <ellipse id="Ellipse_33" data-name="Ellipse 33" cx="83.201" cy="83.165" rx="83.201" ry="83.165" transform="translate(206.345 183.715) rotate(180)" fill="#c9e9e2"/>
    </g>
    <g id="PersonRounded" transform="translate(596 241.941)">
      <path id="Path_520" data-name="Path 520" d="M0,0H94.981V94.981H0Z" fill="none"/>
      <path id="Path_521" data-name="Path 521" d="M35.66,35.66A15.83,15.83,0,1,0,19.83,19.83,15.826,15.826,0,0,0,35.66,35.66Zm0,7.915C25.094,43.575,4,48.879,4,59.406v3.958a3.969,3.969,0,0,0,3.958,3.958H63.363a3.969,3.969,0,0,0,3.958-3.958V59.406C67.321,48.879,46.227,43.575,35.66,43.575Z" transform="translate(11.83 11.83)" fill="#fff"/>
    </g>
  </g>
</svg>
