<?xml version="1.0" encoding="utf-8"?>
<!-- Generator: Adobe Illustrator 27.5.0, SVG Export Plug-In . SVG Version: 6.00 Build 0)  -->
<svg version="1.1" id="Layer_1" xmlns="http://www.w3.org/2000/svg" xmlns:xlink="http://www.w3.org/1999/xlink" x="0px" y="0px"
	 viewBox="0 0 1080 1080" style="enable-background:new 0 0 1080 1080;" xml:space="preserve">
<style type="text/css">
	.st0{fill:#007B5F;}
</style>
<g>
	<path class="st0" d="M509.5,690.4v106.2h-177c0.4-168.1,4.6-297,12.7-386.5c4.1-44.2,8.8-73.8,14.1-88.8
		c5.3-14.9,15.6-22.9,30.7-24.1c55.7-9.2,113.2-13.8,172.5-13.8c59.4,0,116.9,4.6,172.5,13.8c14.4,0.7,24.2,8.4,29.6,22.9
		c5.3,14.6,10.2,44.5,14.7,89.9c8.1,87.4,12.5,216.2,13.3,386.5h-177V690.4H509.5z M438.7,407.2V478h88.5v-70.8H438.7z M438.7,548.8
		v70.8h88.5v-70.8H438.7z M598,407.2V478h88.5v-70.8H598z M598,548.8v70.8h88.5v-70.8H598z"/>
</g>
</svg>
