<svg width="177" height="142" viewBox="0 0 177 142" fill="none" xmlns="http://www.w3.org/2000/svg">
<circle cx="35.913" cy="86.3623" r="35.913" fill="#E8F6F4"/>
<circle cx="17.5289" cy="14.1087" r="9.83333" fill="#C9E9E2"/>
<circle cx="116.833" cy="131.833" r="9.83333" fill="#E8F6F4"/>
<circle cx="123.131" cy="23.942" r="23.942" fill="#E8F6F4"/>
<ellipse cx="135.957" cy="76.529" rx="41.0435" ry="41.471" fill="#A8DBCF"/>
<circle cx="82.0869" cy="59" r="59" fill="#C9E9E2"/>
<path d="M83.5912 79.0349C85.2126 79.0349 86.5271 77.7206 86.5271 76.0992C86.5271 74.4779 85.2126 73.1636 83.5912 73.1636C81.9697 73.1636 80.6553 74.4779 80.6553 76.0992C80.6553 77.7206 81.9697 79.0349 83.5912 79.0349Z" fill="#007B5F"/>
<path d="M68.9117 64.3565C70.5332 64.3565 71.8477 63.0422 71.8477 61.4209C71.8477 59.7996 70.5332 58.4852 68.9117 58.4852C67.2903 58.4852 65.9758 59.7996 65.9758 61.4209C65.9758 63.0422 67.2903 64.3565 68.9117 64.3565Z" fill="#007B5F"/>
<path d="M98.2709 64.3565C99.8923 64.3565 101.207 63.0422 101.207 61.4209C101.207 59.7996 99.8923 58.4852 98.2709 58.4852C96.6494 58.4852 95.335 59.7996 95.335 61.4209C95.335 63.0422 96.6494 64.3565 98.2709 64.3565Z" fill="#007B5F"/>
<path d="M83.5912 35C81.9764 35 80.6553 36.321 80.6553 37.9357V43.807C80.6553 45.4216 81.9764 46.7426 83.5912 46.7426C85.2059 46.7426 86.5271 45.4216 86.5271 43.807V41.1062C96.245 42.5153 103.761 50.6471 104.143 60.6576C104.554 71.9599 95.2468 81.7944 83.9435 81.9705C72.4054 82.1467 63.0398 72.8993 63.0398 61.4209C63.0398 56.489 64.772 51.9681 67.6785 48.4453L81.5067 62.3016C82.6517 63.4465 84.5013 63.4465 85.6463 62.3016C86.7913 61.1567 86.7913 59.3072 85.6463 58.1623L69.675 42.2217C68.5593 41.1062 66.739 41.0768 65.5647 42.163C60.3975 46.9481 57.168 53.7882 57.168 61.4209C57.168 76.2166 69.3226 88.1941 84.2077 87.8418C98.0065 87.5189 109.545 76.0698 109.985 62.2723C110.484 47.3004 98.4763 35 83.5912 35Z" fill="#007B5F"/>
</svg>
