<?xml version="1.0" encoding="utf-8"?>
<!-- Generator: Adobe Illustrator 27.8.1, SVG Export Plug-In . SVG Version: 6.00 Build 0)  -->
<svg version="1.1" id="Layer_1" xmlns="http://www.w3.org/2000/svg" xmlns:xlink="http://www.w3.org/1999/xlink" x="0px" y="0px"
	 viewBox="0 0 177 142" style="enable-background:new 0 0 177 142;" xml:space="preserve">
<style type="text/css">
	.st0{fill:#FCEBB3;}
	.st1{fill:#FEFAEC;}
	.st2{fill:#FEFBF1;}
	.st3{fill:#FDF2D0;}
	.st4{fill:#FFB82B;}
</style>
<circle class="st0" cx="35.9" cy="86.4" r="35.9"/>
<circle class="st0" cx="17.5" cy="14.1" r="9.8"/>
<circle class="st1" cx="116.8" cy="131.8" r="9.8"/>
<circle class="st2" cx="123.1" cy="23.9" r="23.9"/>
<ellipse class="st0" cx="136" cy="76.5" rx="41" ry="41.5"/>
<circle class="st3" cx="82.1" cy="59" r="59"/>
<path class="st4" d="M83.6,79c1.6,0,2.9-1.3,2.9-2.9c0-1.6-1.3-2.9-2.9-2.9c-1.6,0-2.9,1.3-2.9,2.9C80.7,77.7,82,79,83.6,79z"/>
<path class="st4" d="M68.9,64.4c1.6,0,2.9-1.3,2.9-2.9s-1.3-2.9-2.9-2.9c-1.6,0-2.9,1.3-2.9,2.9S67.3,64.4,68.9,64.4z"/>
<path class="st4" d="M98.3,64.4c1.6,0,2.9-1.3,2.9-2.9s-1.3-2.9-2.9-2.9c-1.6,0-2.9,1.3-2.9,2.9S96.6,64.4,98.3,64.4z"/>
<path class="st4" d="M83.6,35c-1.6,0-2.9,1.3-2.9,2.9v5.9c0,1.6,1.3,2.9,2.9,2.9c1.6,0,2.9-1.3,2.9-2.9v-2.7
	c9.7,1.4,17.2,9.5,17.6,19.6C104.6,72,95.2,81.8,83.9,82C72.4,82.1,63,72.9,63,61.4c0-4.9,1.7-9.5,4.6-13l13.8,13.9
	c1.1,1.1,3,1.1,4.1,0c1.1-1.1,1.1-3,0-4.1l-16-15.9c-1.1-1.1-2.9-1.1-4.1-0.1c-5.2,4.8-8.4,11.6-8.4,19.3c0,14.8,12.2,26.8,27,26.4
	C98,87.5,109.5,76.1,110,62.3C110.5,47.3,98.5,35,83.6,35z"/>
</svg>
